<mxfile host="app.diagrams.net" modified="2024-06-11T00:14:21.693Z" agent="Mozilla/5.0 (Macintosh; Intel Mac OS X 10_15_7) AppleWebKit/537.36 (KHTML, like Gecko) Chrome/125.0.0.0 Safari/537.36" etag="aeZnO4qkh1LFPHL-EjxM" version="24.4.13" type="device">
  <diagram name="Page-1" id="TI9et1MGAXXlvoW36q-T">
    <mxGraphModel dx="2074" dy="1155" grid="1" gridSize="10" guides="1" tooltips="1" connect="1" arrows="1" fold="1" page="1" pageScale="1" pageWidth="827" pageHeight="1169" math="0" shadow="0">
      <root>
        <mxCell id="0" />
        <mxCell id="1" parent="0" />
        <mxCell id="2Mee0SCEBqpP-NvjhL0r-15" value="Sign up" style="ellipse;whiteSpace=wrap;html=1;" vertex="1" parent="1">
          <mxGeometry x="354" y="120" width="120" height="80" as="geometry" />
        </mxCell>
        <mxCell id="2Mee0SCEBqpP-NvjhL0r-25" value="" style="edgeStyle=orthogonalEdgeStyle;rounded=0;orthogonalLoop=1;jettySize=auto;html=1;" edge="1" parent="1" source="2Mee0SCEBqpP-NvjhL0r-16" target="2Mee0SCEBqpP-NvjhL0r-17">
          <mxGeometry relative="1" as="geometry" />
        </mxCell>
        <mxCell id="2Mee0SCEBqpP-NvjhL0r-46" style="edgeStyle=orthogonalEdgeStyle;rounded=0;orthogonalLoop=1;jettySize=auto;html=1;exitX=1;exitY=0.5;exitDx=0;exitDy=0;entryX=0;entryY=0.3;entryDx=0;entryDy=0;curved=1;" edge="1" parent="1" source="2Mee0SCEBqpP-NvjhL0r-16" target="2Mee0SCEBqpP-NvjhL0r-44">
          <mxGeometry relative="1" as="geometry" />
        </mxCell>
        <mxCell id="2Mee0SCEBqpP-NvjhL0r-16" value="Sign in" style="ellipse;whiteSpace=wrap;html=1;" vertex="1" parent="1">
          <mxGeometry x="354" y="230" width="120" height="80" as="geometry" />
        </mxCell>
        <mxCell id="2Mee0SCEBqpP-NvjhL0r-26" value="" style="edgeStyle=orthogonalEdgeStyle;rounded=0;orthogonalLoop=1;jettySize=auto;html=1;" edge="1" parent="1" source="2Mee0SCEBqpP-NvjhL0r-17" target="2Mee0SCEBqpP-NvjhL0r-18">
          <mxGeometry relative="1" as="geometry" />
        </mxCell>
        <mxCell id="2Mee0SCEBqpP-NvjhL0r-47" style="edgeStyle=orthogonalEdgeStyle;rounded=0;orthogonalLoop=1;jettySize=auto;html=1;exitX=1;exitY=0.5;exitDx=0;exitDy=0;entryX=0;entryY=0.7;entryDx=0;entryDy=0;curved=1;" edge="1" parent="1" source="2Mee0SCEBqpP-NvjhL0r-17" target="2Mee0SCEBqpP-NvjhL0r-44">
          <mxGeometry relative="1" as="geometry">
            <Array as="points">
              <mxPoint x="592" y="380" />
              <mxPoint x="592" y="480" />
              <mxPoint x="710" y="480" />
            </Array>
          </mxGeometry>
        </mxCell>
        <mxCell id="2Mee0SCEBqpP-NvjhL0r-17" value="Search a job/product" style="ellipse;whiteSpace=wrap;html=1;" vertex="1" parent="1">
          <mxGeometry x="354" y="340" width="120" height="80" as="geometry" />
        </mxCell>
        <mxCell id="2Mee0SCEBqpP-NvjhL0r-27" value="" style="edgeStyle=orthogonalEdgeStyle;rounded=0;orthogonalLoop=1;jettySize=auto;html=1;" edge="1" parent="1" source="2Mee0SCEBqpP-NvjhL0r-18" target="2Mee0SCEBqpP-NvjhL0r-19">
          <mxGeometry relative="1" as="geometry" />
        </mxCell>
        <mxCell id="2Mee0SCEBqpP-NvjhL0r-48" style="edgeStyle=orthogonalEdgeStyle;rounded=0;orthogonalLoop=1;jettySize=auto;html=1;exitX=1;exitY=0.5;exitDx=0;exitDy=0;curved=1;" edge="1" parent="1" source="2Mee0SCEBqpP-NvjhL0r-18">
          <mxGeometry relative="1" as="geometry">
            <mxPoint x="710" y="490" as="targetPoint" />
          </mxGeometry>
        </mxCell>
        <mxCell id="2Mee0SCEBqpP-NvjhL0r-18" value="Apply a job" style="ellipse;whiteSpace=wrap;html=1;" vertex="1" parent="1">
          <mxGeometry x="354" y="450" width="120" height="80" as="geometry" />
        </mxCell>
        <mxCell id="2Mee0SCEBqpP-NvjhL0r-28" value="" style="edgeStyle=orthogonalEdgeStyle;rounded=0;orthogonalLoop=1;jettySize=auto;html=1;" edge="1" parent="1" source="2Mee0SCEBqpP-NvjhL0r-19" target="2Mee0SCEBqpP-NvjhL0r-21">
          <mxGeometry relative="1" as="geometry" />
        </mxCell>
        <mxCell id="2Mee0SCEBqpP-NvjhL0r-19" value="Buy a product" style="ellipse;whiteSpace=wrap;html=1;" vertex="1" parent="1">
          <mxGeometry x="354" y="560" width="120" height="80" as="geometry" />
        </mxCell>
        <mxCell id="2Mee0SCEBqpP-NvjhL0r-20" value="Remove job/product" style="ellipse;whiteSpace=wrap;html=1;" vertex="1" parent="1">
          <mxGeometry x="354" y="790" width="120" height="80" as="geometry" />
        </mxCell>
        <mxCell id="2Mee0SCEBqpP-NvjhL0r-29" value="" style="edgeStyle=orthogonalEdgeStyle;rounded=0;orthogonalLoop=1;jettySize=auto;html=1;" edge="1" parent="1" source="2Mee0SCEBqpP-NvjhL0r-21" target="2Mee0SCEBqpP-NvjhL0r-20">
          <mxGeometry relative="1" as="geometry" />
        </mxCell>
        <mxCell id="2Mee0SCEBqpP-NvjhL0r-50" style="edgeStyle=orthogonalEdgeStyle;rounded=0;orthogonalLoop=1;jettySize=auto;html=1;exitX=1;exitY=0.5;exitDx=0;exitDy=0;entryX=0.5;entryY=1;entryDx=0;entryDy=0;curved=1;" edge="1" parent="1" source="2Mee0SCEBqpP-NvjhL0r-21" target="2Mee0SCEBqpP-NvjhL0r-44">
          <mxGeometry relative="1" as="geometry" />
        </mxCell>
        <mxCell id="2Mee0SCEBqpP-NvjhL0r-21" value="Provide a product" style="ellipse;whiteSpace=wrap;html=1;" vertex="1" parent="1">
          <mxGeometry x="354" y="670" width="120" height="80" as="geometry" />
        </mxCell>
        <mxCell id="2Mee0SCEBqpP-NvjhL0r-22" value="" style="endArrow=classic;html=1;rounded=0;exitX=0.5;exitY=1;exitDx=0;exitDy=0;" edge="1" parent="1" source="2Mee0SCEBqpP-NvjhL0r-15">
          <mxGeometry width="50" height="50" relative="1" as="geometry">
            <mxPoint x="360" y="580" as="sourcePoint" />
            <mxPoint x="414" y="230" as="targetPoint" />
          </mxGeometry>
        </mxCell>
        <mxCell id="2Mee0SCEBqpP-NvjhL0r-24" value="include" style="text;html=1;align=center;verticalAlign=middle;resizable=0;points=[];autosize=1;strokeColor=none;fillColor=none;" vertex="1" parent="1">
          <mxGeometry x="420" y="200" width="60" height="30" as="geometry" />
        </mxCell>
        <mxCell id="2Mee0SCEBqpP-NvjhL0r-35" style="edgeStyle=orthogonalEdgeStyle;rounded=0;orthogonalLoop=1;jettySize=auto;html=1;exitX=1;exitY=0.3333333333333333;exitDx=0;exitDy=0;exitPerimeter=0;entryX=0;entryY=0.5;entryDx=0;entryDy=0;curved=1;" edge="1" parent="1" source="2Mee0SCEBqpP-NvjhL0r-30" target="2Mee0SCEBqpP-NvjhL0r-15">
          <mxGeometry relative="1" as="geometry">
            <Array as="points">
              <mxPoint x="230" y="350" />
              <mxPoint x="230" y="160" />
            </Array>
          </mxGeometry>
        </mxCell>
        <mxCell id="2Mee0SCEBqpP-NvjhL0r-36" style="edgeStyle=orthogonalEdgeStyle;rounded=0;orthogonalLoop=1;jettySize=auto;html=1;exitX=0.5;exitY=0.5;exitDx=0;exitDy=0;exitPerimeter=0;entryX=0;entryY=0.5;entryDx=0;entryDy=0;curved=1;" edge="1" parent="1" source="2Mee0SCEBqpP-NvjhL0r-30" target="2Mee0SCEBqpP-NvjhL0r-16">
          <mxGeometry relative="1" as="geometry" />
        </mxCell>
        <mxCell id="2Mee0SCEBqpP-NvjhL0r-39" style="edgeStyle=orthogonalEdgeStyle;rounded=0;orthogonalLoop=1;jettySize=auto;html=1;exitX=0.5;exitY=0.5;exitDx=0;exitDy=0;exitPerimeter=0;entryX=0;entryY=0.5;entryDx=0;entryDy=0;curved=1;" edge="1" parent="1" source="2Mee0SCEBqpP-NvjhL0r-30" target="2Mee0SCEBqpP-NvjhL0r-18">
          <mxGeometry relative="1" as="geometry" />
        </mxCell>
        <mxCell id="2Mee0SCEBqpP-NvjhL0r-40" style="edgeStyle=orthogonalEdgeStyle;rounded=0;orthogonalLoop=1;jettySize=auto;html=1;exitX=1;exitY=1;exitDx=0;exitDy=0;exitPerimeter=0;entryX=0;entryY=0.5;entryDx=0;entryDy=0;curved=1;" edge="1" parent="1" source="2Mee0SCEBqpP-NvjhL0r-30" target="2Mee0SCEBqpP-NvjhL0r-19">
          <mxGeometry relative="1" as="geometry">
            <Array as="points">
              <mxPoint x="210" y="390" />
              <mxPoint x="210" y="560" />
              <mxPoint x="354" y="560" />
            </Array>
          </mxGeometry>
        </mxCell>
        <mxCell id="2Mee0SCEBqpP-NvjhL0r-41" style="edgeStyle=orthogonalEdgeStyle;rounded=0;orthogonalLoop=1;jettySize=auto;html=1;exitX=0.5;exitY=0.5;exitDx=0;exitDy=0;exitPerimeter=0;entryX=0;entryY=0.5;entryDx=0;entryDy=0;curved=1;" edge="1" parent="1" source="2Mee0SCEBqpP-NvjhL0r-30" target="2Mee0SCEBqpP-NvjhL0r-17">
          <mxGeometry relative="1" as="geometry" />
        </mxCell>
        <mxCell id="2Mee0SCEBqpP-NvjhL0r-30" value="User" style="shape=umlActor;verticalLabelPosition=bottom;verticalAlign=top;html=1;outlineConnect=0;" vertex="1" parent="1">
          <mxGeometry x="130" y="330" width="30" height="60" as="geometry" />
        </mxCell>
        <mxCell id="2Mee0SCEBqpP-NvjhL0r-37" style="edgeStyle=orthogonalEdgeStyle;rounded=0;orthogonalLoop=1;jettySize=auto;html=1;exitX=1;exitY=0.3333333333333333;exitDx=0;exitDy=0;exitPerimeter=0;entryX=0;entryY=1;entryDx=0;entryDy=0;curved=1;" edge="1" parent="1" source="2Mee0SCEBqpP-NvjhL0r-31" target="2Mee0SCEBqpP-NvjhL0r-16">
          <mxGeometry relative="1" as="geometry">
            <Array as="points">
              <mxPoint x="280" y="480" />
              <mxPoint x="280" y="298" />
            </Array>
          </mxGeometry>
        </mxCell>
        <mxCell id="2Mee0SCEBqpP-NvjhL0r-38" style="edgeStyle=orthogonalEdgeStyle;rounded=0;orthogonalLoop=1;jettySize=auto;html=1;exitX=0.5;exitY=0.5;exitDx=0;exitDy=0;exitPerimeter=0;entryX=0;entryY=0;entryDx=0;entryDy=0;curved=1;" edge="1" parent="1" source="2Mee0SCEBqpP-NvjhL0r-31" target="2Mee0SCEBqpP-NvjhL0r-20">
          <mxGeometry relative="1" as="geometry">
            <Array as="points">
              <mxPoint x="320" y="490" />
              <mxPoint x="320" y="802" />
            </Array>
          </mxGeometry>
        </mxCell>
        <mxCell id="2Mee0SCEBqpP-NvjhL0r-31" value="Admin" style="shape=umlActor;verticalLabelPosition=bottom;verticalAlign=top;html=1;outlineConnect=0;" vertex="1" parent="1">
          <mxGeometry x="130" y="460" width="30" height="60" as="geometry" />
        </mxCell>
        <mxCell id="2Mee0SCEBqpP-NvjhL0r-42" style="edgeStyle=orthogonalEdgeStyle;rounded=0;orthogonalLoop=1;jettySize=auto;html=1;exitX=0.5;exitY=0.5;exitDx=0;exitDy=0;exitPerimeter=0;entryX=0;entryY=0.5;entryDx=0;entryDy=0;curved=1;" edge="1" parent="1" source="2Mee0SCEBqpP-NvjhL0r-32" target="2Mee0SCEBqpP-NvjhL0r-21">
          <mxGeometry relative="1" as="geometry" />
        </mxCell>
        <mxCell id="2Mee0SCEBqpP-NvjhL0r-43" style="edgeStyle=orthogonalEdgeStyle;rounded=0;orthogonalLoop=1;jettySize=auto;html=1;exitX=1;exitY=1;exitDx=0;exitDy=0;exitPerimeter=0;entryX=0;entryY=0.5;entryDx=0;entryDy=0;curved=1;" edge="1" parent="1" source="2Mee0SCEBqpP-NvjhL0r-32" target="2Mee0SCEBqpP-NvjhL0r-20">
          <mxGeometry relative="1" as="geometry">
            <Array as="points">
              <mxPoint x="240" y="650" />
              <mxPoint x="240" y="830" />
            </Array>
          </mxGeometry>
        </mxCell>
        <mxCell id="2Mee0SCEBqpP-NvjhL0r-32" value="SBOs" style="shape=umlActor;verticalLabelPosition=bottom;verticalAlign=top;html=1;outlineConnect=0;" vertex="1" parent="1">
          <mxGeometry x="130" y="590" width="30" height="60" as="geometry" />
        </mxCell>
        <mxCell id="2Mee0SCEBqpP-NvjhL0r-44" value="DB" style="shape=datastore;whiteSpace=wrap;html=1;" vertex="1" parent="1">
          <mxGeometry x="710" y="460" width="60" height="60" as="geometry" />
        </mxCell>
        <mxCell id="2Mee0SCEBqpP-NvjhL0r-45" style="edgeStyle=orthogonalEdgeStyle;rounded=0;orthogonalLoop=1;jettySize=auto;html=1;exitX=1;exitY=0.5;exitDx=0;exitDy=0;entryX=0.15;entryY=0.05;entryDx=0;entryDy=0;entryPerimeter=0;curved=1;" edge="1" parent="1" source="2Mee0SCEBqpP-NvjhL0r-15" target="2Mee0SCEBqpP-NvjhL0r-44">
          <mxGeometry relative="1" as="geometry" />
        </mxCell>
        <mxCell id="2Mee0SCEBqpP-NvjhL0r-49" style="edgeStyle=orthogonalEdgeStyle;rounded=0;orthogonalLoop=1;jettySize=auto;html=1;exitX=1;exitY=0.5;exitDx=0;exitDy=0;entryX=0.15;entryY=0.95;entryDx=0;entryDy=0;entryPerimeter=0;curved=1;" edge="1" parent="1" source="2Mee0SCEBqpP-NvjhL0r-19" target="2Mee0SCEBqpP-NvjhL0r-44">
          <mxGeometry relative="1" as="geometry" />
        </mxCell>
        <mxCell id="2Mee0SCEBqpP-NvjhL0r-52" style="edgeStyle=orthogonalEdgeStyle;rounded=0;orthogonalLoop=1;jettySize=auto;html=1;exitX=1;exitY=0.5;exitDx=0;exitDy=0;entryX=0.85;entryY=0.95;entryDx=0;entryDy=0;entryPerimeter=0;curved=1;" edge="1" parent="1" source="2Mee0SCEBqpP-NvjhL0r-20" target="2Mee0SCEBqpP-NvjhL0r-44">
          <mxGeometry relative="1" as="geometry" />
        </mxCell>
      </root>
    </mxGraphModel>
  </diagram>
</mxfile>
